# xmcd
#
# Track frame offsets:
#	150
#	14132
#	26532
#	41780
#	53695
#	70860
#	88757
#	102670
#	118167
#	134715
#	153645
#	171645
#	185027
#	202655
#	216495
#	231822
#	251680
#
# Disc length: 3560
#
# Revision: 1
# Processed by: cddbd v1.5.1PL0 Copyright (c) Steve Scherf et al.
# Submitted via: VisiTrax 2.9.5.180 - For more info visit www.synapsa.com
# Normalized: r0:DSETVAR1
#
DISCID=0a0de611
DTITLE=Various Artist - CDX 94 October 1994
DYEAR=1994
DGENRE=
TTITLE0=Ricky Lynn Gregg - After the fire is gone
TTITLE1=Mac McAnally - Down the road
TTITLE2=Johnny Cash - Goin' by the book
TTITLE3=Mark Chesnutt - Goin' through the big D
TTITLE4=Willie Nelson - Healing hands of time
TTITLE5=Trisha Yearwood - It wasn't his child
TTITLE6=Kath Mattea - Maybe she's human
TTITLE7=Tim McGraw - Not a moment too soon
TTITLE8=Joe Diffie - Pickup man
TTITLE9=S Alan Taylor - Savannah by moonlight
TTITLE10=Billy Ray Cyrus - Storm in the heartland
TTITLE11=Clinton Gregory - The gulf and the shell
TTITLE12=Reba McEntire - *Till you love me
TTITLE13=Greg Holland - When I come back (I wanna be my dog)
TTITLE14=Brooks and Dunn - I'll never forgive my heart
TTITLE15=Kentucky Headhunters - You've got to hide your love away
TTITLE16=Big Ed Johnson - Smoker's letter to the president
EXTD=
EXTT0=
EXTT1=
EXTT2=
EXTT3=
EXTT4=
EXTT5=
EXTT6=
EXTT7=
EXTT8=
EXTT9=
EXTT10=
EXTT11=
EXTT12=
EXTT13=
EXTT14=
EXTT15=
EXTT16=
PLAYORDER=
